<mxfile host="app.diagrams.net" agent="Mozilla/5.0 (Macintosh; Intel Mac OS X 10_15_7) AppleWebKit/537.36 (KHTML, like Gecko) Chrome/132.0.0.0 Safari/537.36 Edg/132.0.0.0" version="26.0.10">
  <diagram name="第 1 页" id="mRTJMEbK_BDoFnGVs-Dx">
    <mxGraphModel dx="2004" dy="672" grid="1" gridSize="10" guides="1" tooltips="1" connect="1" arrows="1" fold="1" page="1" pageScale="1" pageWidth="827" pageHeight="1169" math="0" shadow="0">
      <root>
        <mxCell id="0" />
        <mxCell id="1" parent="0" />
        <mxCell id="Yelha0Kg6dsWEkXLYgLJ-6" style="edgeStyle=orthogonalEdgeStyle;rounded=0;orthogonalLoop=1;jettySize=auto;html=1;" edge="1" parent="1" source="Yelha0Kg6dsWEkXLYgLJ-1" target="Yelha0Kg6dsWEkXLYgLJ-2">
          <mxGeometry relative="1" as="geometry" />
        </mxCell>
        <mxCell id="Yelha0Kg6dsWEkXLYgLJ-1" value="用这些刀具拍摄大量加工视频" style="rounded=0;whiteSpace=wrap;html=1;" vertex="1" parent="1">
          <mxGeometry x="180" y="140" width="120" height="60" as="geometry" />
        </mxCell>
        <mxCell id="Yelha0Kg6dsWEkXLYgLJ-7" style="edgeStyle=orthogonalEdgeStyle;rounded=0;orthogonalLoop=1;jettySize=auto;html=1;exitX=1;exitY=0.5;exitDx=0;exitDy=0;entryX=0;entryY=0.5;entryDx=0;entryDy=0;" edge="1" parent="1" source="Yelha0Kg6dsWEkXLYgLJ-2" target="Yelha0Kg6dsWEkXLYgLJ-3">
          <mxGeometry relative="1" as="geometry" />
        </mxCell>
        <mxCell id="Yelha0Kg6dsWEkXLYgLJ-2" value="提取帧" style="rounded=0;whiteSpace=wrap;html=1;" vertex="1" parent="1">
          <mxGeometry x="354" y="140" width="120" height="60" as="geometry" />
        </mxCell>
        <mxCell id="Yelha0Kg6dsWEkXLYgLJ-8" style="edgeStyle=orthogonalEdgeStyle;rounded=0;orthogonalLoop=1;jettySize=auto;html=1;exitX=0.5;exitY=1;exitDx=0;exitDy=0;" edge="1" parent="1" source="Yelha0Kg6dsWEkXLYgLJ-3" target="Yelha0Kg6dsWEkXLYgLJ-4">
          <mxGeometry relative="1" as="geometry" />
        </mxCell>
        <mxCell id="Yelha0Kg6dsWEkXLYgLJ-3" value="数据标注，为不同的刀具标注它们的标签，如丝锥、外圆车刀" style="rounded=0;whiteSpace=wrap;html=1;" vertex="1" parent="1">
          <mxGeometry x="530" y="140" width="120" height="60" as="geometry" />
        </mxCell>
        <mxCell id="Yelha0Kg6dsWEkXLYgLJ-9" style="edgeStyle=orthogonalEdgeStyle;rounded=0;orthogonalLoop=1;jettySize=auto;html=1;" edge="1" parent="1" source="Yelha0Kg6dsWEkXLYgLJ-4" target="Yelha0Kg6dsWEkXLYgLJ-5">
          <mxGeometry relative="1" as="geometry" />
        </mxCell>
        <mxCell id="Yelha0Kg6dsWEkXLYgLJ-4" value="数据增强" style="rounded=0;whiteSpace=wrap;html=1;" vertex="1" parent="1">
          <mxGeometry x="530" y="250" width="120" height="60" as="geometry" />
        </mxCell>
        <mxCell id="Yelha0Kg6dsWEkXLYgLJ-11" style="edgeStyle=orthogonalEdgeStyle;rounded=0;orthogonalLoop=1;jettySize=auto;html=1;exitX=0;exitY=0.5;exitDx=0;exitDy=0;entryX=1;entryY=0.5;entryDx=0;entryDy=0;" edge="1" parent="1" source="Yelha0Kg6dsWEkXLYgLJ-5" target="Yelha0Kg6dsWEkXLYgLJ-10">
          <mxGeometry relative="1" as="geometry" />
        </mxCell>
        <mxCell id="Yelha0Kg6dsWEkXLYgLJ-5" value="模型训练与调参数" style="rounded=0;whiteSpace=wrap;html=1;" vertex="1" parent="1">
          <mxGeometry x="354" y="250" width="120" height="60" as="geometry" />
        </mxCell>
        <mxCell id="Yelha0Kg6dsWEkXLYgLJ-10" value="出机" style="rounded=0;whiteSpace=wrap;html=1;" vertex="1" parent="1">
          <mxGeometry x="180" y="250" width="120" height="60" as="geometry" />
        </mxCell>
        <mxCell id="Yelha0Kg6dsWEkXLYgLJ-17" style="edgeStyle=orthogonalEdgeStyle;rounded=0;orthogonalLoop=1;jettySize=auto;html=1;" edge="1" parent="1" source="Yelha0Kg6dsWEkXLYgLJ-12" target="Yelha0Kg6dsWEkXLYgLJ-13">
          <mxGeometry relative="1" as="geometry" />
        </mxCell>
        <mxCell id="Yelha0Kg6dsWEkXLYgLJ-12" value="用几种刀具拍摄少量加工视频" style="rounded=0;whiteSpace=wrap;html=1;" vertex="1" parent="1">
          <mxGeometry x="-20" y="600" width="120" height="60" as="geometry" />
        </mxCell>
        <mxCell id="Yelha0Kg6dsWEkXLYgLJ-19" style="edgeStyle=orthogonalEdgeStyle;rounded=0;orthogonalLoop=1;jettySize=auto;html=1;" edge="1" parent="1" source="Yelha0Kg6dsWEkXLYgLJ-13" target="Yelha0Kg6dsWEkXLYgLJ-18">
          <mxGeometry relative="1" as="geometry" />
        </mxCell>
        <mxCell id="Yelha0Kg6dsWEkXLYgLJ-13" value="提取帧" style="rounded=0;whiteSpace=wrap;html=1;" vertex="1" parent="1">
          <mxGeometry x="160" y="600" width="120" height="60" as="geometry" />
        </mxCell>
        <mxCell id="Yelha0Kg6dsWEkXLYgLJ-15" style="edgeStyle=orthogonalEdgeStyle;rounded=0;orthogonalLoop=1;jettySize=auto;html=1;" edge="1" parent="1" source="Yelha0Kg6dsWEkXLYgLJ-14" target="Yelha0Kg6dsWEkXLYgLJ-1">
          <mxGeometry relative="1" as="geometry" />
        </mxCell>
        <mxCell id="Yelha0Kg6dsWEkXLYgLJ-14" value="先明确有多少种刀具需要识别" style="rounded=0;whiteSpace=wrap;html=1;" vertex="1" parent="1">
          <mxGeometry y="140" width="120" height="60" as="geometry" />
        </mxCell>
        <mxCell id="Yelha0Kg6dsWEkXLYgLJ-21" style="edgeStyle=orthogonalEdgeStyle;rounded=0;orthogonalLoop=1;jettySize=auto;html=1;" edge="1" parent="1" source="Yelha0Kg6dsWEkXLYgLJ-18" target="Yelha0Kg6dsWEkXLYgLJ-20">
          <mxGeometry relative="1" as="geometry" />
        </mxCell>
        <mxCell id="Yelha0Kg6dsWEkXLYgLJ-18" value="数据标注，统一标注为“刀具”" style="rounded=0;whiteSpace=wrap;html=1;" vertex="1" parent="1">
          <mxGeometry x="334" y="600" width="120" height="60" as="geometry" />
        </mxCell>
        <mxCell id="Yelha0Kg6dsWEkXLYgLJ-23" style="edgeStyle=orthogonalEdgeStyle;rounded=0;orthogonalLoop=1;jettySize=auto;html=1;entryX=0.5;entryY=0;entryDx=0;entryDy=0;exitX=1;exitY=0.5;exitDx=0;exitDy=0;" edge="1" parent="1" source="Yelha0Kg6dsWEkXLYgLJ-22" target="Yelha0Kg6dsWEkXLYgLJ-22">
          <mxGeometry relative="1" as="geometry">
            <Array as="points">
              <mxPoint x="220" y="750" />
            </Array>
          </mxGeometry>
        </mxCell>
        <mxCell id="Yelha0Kg6dsWEkXLYgLJ-34" value="" style="edgeStyle=orthogonalEdgeStyle;rounded=0;orthogonalLoop=1;jettySize=auto;html=1;" edge="1" parent="1" source="Yelha0Kg6dsWEkXLYgLJ-20" target="Yelha0Kg6dsWEkXLYgLJ-22">
          <mxGeometry relative="1" as="geometry" />
        </mxCell>
        <mxCell id="Yelha0Kg6dsWEkXLYgLJ-20" value="模型训练与调参数" style="rounded=0;whiteSpace=wrap;html=1;" vertex="1" parent="1">
          <mxGeometry x="334" y="720" width="120" height="60" as="geometry" />
        </mxCell>
        <mxCell id="Yelha0Kg6dsWEkXLYgLJ-36" value="" style="edgeStyle=orthogonalEdgeStyle;rounded=0;orthogonalLoop=1;jettySize=auto;html=1;" edge="1" parent="1" source="Yelha0Kg6dsWEkXLYgLJ-22" target="Yelha0Kg6dsWEkXLYgLJ-35">
          <mxGeometry relative="1" as="geometry" />
        </mxCell>
        <mxCell id="Yelha0Kg6dsWEkXLYgLJ-22" value="出机" style="rounded=0;whiteSpace=wrap;html=1;" vertex="1" parent="1">
          <mxGeometry x="160" y="720" width="120" height="60" as="geometry" />
        </mxCell>
        <mxCell id="Yelha0Kg6dsWEkXLYgLJ-28" style="edgeStyle=orthogonalEdgeStyle;rounded=0;orthogonalLoop=1;jettySize=auto;html=1;exitX=1;exitY=0.5;exitDx=0;exitDy=0;entryX=0;entryY=0.5;entryDx=0;entryDy=0;" edge="1" parent="1" source="Yelha0Kg6dsWEkXLYgLJ-24" target="Yelha0Kg6dsWEkXLYgLJ-27">
          <mxGeometry relative="1" as="geometry" />
        </mxCell>
        <mxCell id="Yelha0Kg6dsWEkXLYgLJ-24" value="机床内部相机进行拍摄" style="rounded=0;whiteSpace=wrap;html=1;" vertex="1" parent="1">
          <mxGeometry y="390" width="130" height="60" as="geometry" />
        </mxCell>
        <mxCell id="Yelha0Kg6dsWEkXLYgLJ-25" value="&lt;span style=&quot;color: rgb(0, 0, 0); font-family: Helvetica; font-size: 12px; font-style: normal; font-variant-ligatures: normal; font-variant-caps: normal; font-weight: 400; letter-spacing: normal; orphans: 2; text-align: center; text-indent: 0px; text-transform: none; widows: 2; word-spacing: 0px; -webkit-text-stroke-width: 0px; white-space: normal; background-color: rgb(251, 251, 251); text-decoration-thickness: initial; text-decoration-style: initial; text-decoration-color: initial; float: none; display: inline !important;&quot;&gt;用户通过登陆到云平台前端网页，查询当前机床，工艺用到了什么刀具&lt;/span&gt;" style="text;whiteSpace=wrap;html=1;" vertex="1" parent="1">
          <mxGeometry x="-20" y="340" width="230" height="40" as="geometry" />
        </mxCell>
        <mxCell id="Yelha0Kg6dsWEkXLYgLJ-26" value="研发方案一" style="text;html=1;align=center;verticalAlign=middle;whiteSpace=wrap;rounded=0;" vertex="1" parent="1">
          <mxGeometry x="10" y="100" width="110" height="30" as="geometry" />
        </mxCell>
        <mxCell id="Yelha0Kg6dsWEkXLYgLJ-30" style="edgeStyle=orthogonalEdgeStyle;rounded=0;orthogonalLoop=1;jettySize=auto;html=1;" edge="1" parent="1" source="Yelha0Kg6dsWEkXLYgLJ-27" target="Yelha0Kg6dsWEkXLYgLJ-29">
          <mxGeometry relative="1" as="geometry" />
        </mxCell>
        <mxCell id="Yelha0Kg6dsWEkXLYgLJ-27" value="将图片发送到云平台后端服务器" style="rounded=0;whiteSpace=wrap;html=1;" vertex="1" parent="1">
          <mxGeometry x="180" y="390" width="120" height="60" as="geometry" />
        </mxCell>
        <mxCell id="Yelha0Kg6dsWEkXLYgLJ-32" style="edgeStyle=orthogonalEdgeStyle;rounded=0;orthogonalLoop=1;jettySize=auto;html=1;" edge="1" parent="1" source="Yelha0Kg6dsWEkXLYgLJ-29" target="Yelha0Kg6dsWEkXLYgLJ-31">
          <mxGeometry relative="1" as="geometry" />
        </mxCell>
        <mxCell id="Yelha0Kg6dsWEkXLYgLJ-29" value="服务器通过http调用训练好的模型，得到结果图片返回至云平台后端" style="rounded=0;whiteSpace=wrap;html=1;" vertex="1" parent="1">
          <mxGeometry x="353" y="390" width="147" height="60" as="geometry" />
        </mxCell>
        <mxCell id="Yelha0Kg6dsWEkXLYgLJ-31" value="前端显示收到的结果图片" style="rounded=0;whiteSpace=wrap;html=1;" vertex="1" parent="1">
          <mxGeometry x="550" y="390" width="140" height="60" as="geometry" />
        </mxCell>
        <mxCell id="Yelha0Kg6dsWEkXLYgLJ-33" value="研发方案二" style="text;html=1;align=center;verticalAlign=middle;resizable=0;points=[];autosize=1;strokeColor=none;fillColor=none;" vertex="1" parent="1">
          <mxGeometry x="-30" y="568" width="80" height="30" as="geometry" />
        </mxCell>
        <mxCell id="Yelha0Kg6dsWEkXLYgLJ-39" value="" style="edgeStyle=orthogonalEdgeStyle;rounded=0;orthogonalLoop=1;jettySize=auto;html=1;" edge="1" parent="1" source="Yelha0Kg6dsWEkXLYgLJ-35" target="Yelha0Kg6dsWEkXLYgLJ-37">
          <mxGeometry relative="1" as="geometry" />
        </mxCell>
        <mxCell id="Yelha0Kg6dsWEkXLYgLJ-35" value="通过用户收集图片至满足模型训练要求" style="rounded=0;whiteSpace=wrap;html=1;" vertex="1" parent="1">
          <mxGeometry x="-20" y="720" width="120" height="60" as="geometry" />
        </mxCell>
        <mxCell id="Yelha0Kg6dsWEkXLYgLJ-40" value="" style="edgeStyle=orthogonalEdgeStyle;rounded=0;orthogonalLoop=1;jettySize=auto;html=1;" edge="1" parent="1" source="Yelha0Kg6dsWEkXLYgLJ-37" target="Yelha0Kg6dsWEkXLYgLJ-38">
          <mxGeometry relative="1" as="geometry" />
        </mxCell>
        <mxCell id="Yelha0Kg6dsWEkXLYgLJ-37" value="再次数据标注，为不同的刀具标注它们的标签，如丝锥、外圆车刀" style="rounded=0;whiteSpace=wrap;html=1;" vertex="1" parent="1">
          <mxGeometry x="-20" y="840" width="120" height="60" as="geometry" />
        </mxCell>
        <mxCell id="Yelha0Kg6dsWEkXLYgLJ-42" value="" style="edgeStyle=orthogonalEdgeStyle;rounded=0;orthogonalLoop=1;jettySize=auto;html=1;" edge="1" parent="1" source="Yelha0Kg6dsWEkXLYgLJ-38" target="Yelha0Kg6dsWEkXLYgLJ-41">
          <mxGeometry relative="1" as="geometry" />
        </mxCell>
        <mxCell id="Yelha0Kg6dsWEkXLYgLJ-38" value="模型训练与调参数" style="rounded=0;whiteSpace=wrap;html=1;" vertex="1" parent="1">
          <mxGeometry x="160" y="840" width="120" height="60" as="geometry" />
        </mxCell>
        <mxCell id="Yelha0Kg6dsWEkXLYgLJ-41" value="出机" style="rounded=0;whiteSpace=wrap;html=1;" vertex="1" parent="1">
          <mxGeometry x="334" y="840" width="120" height="60" as="geometry" />
        </mxCell>
        <mxCell id="Yelha0Kg6dsWEkXLYgLJ-43" value="&lt;span style=&quot;color: rgb(0, 0, 0); font-family: Helvetica; font-size: 12px; font-style: normal; font-variant-ligatures: normal; font-variant-caps: normal; font-weight: 400; letter-spacing: normal; orphans: 2; text-align: center; text-indent: 0px; text-transform: none; widows: 2; word-spacing: 0px; -webkit-text-stroke-width: 0px; white-space: normal; background-color: rgb(251, 251, 251); text-decoration-thickness: initial; text-decoration-style: initial; text-decoration-color: initial; display: inline !important; float: none;&quot;&gt;用户通过登陆到云平台前端网页，查询当前机床，工艺用到了什么刀具&lt;/span&gt;" style="text;whiteSpace=wrap;html=1;" vertex="1" parent="1">
          <mxGeometry x="-10" y="960" width="410" height="40" as="geometry" />
        </mxCell>
        <mxCell id="Yelha0Kg6dsWEkXLYgLJ-44" style="edgeStyle=orthogonalEdgeStyle;rounded=0;orthogonalLoop=1;jettySize=auto;html=1;exitX=1;exitY=0.5;exitDx=0;exitDy=0;entryX=0;entryY=0.5;entryDx=0;entryDy=0;" edge="1" parent="1" source="Yelha0Kg6dsWEkXLYgLJ-45" target="Yelha0Kg6dsWEkXLYgLJ-47">
          <mxGeometry relative="1" as="geometry" />
        </mxCell>
        <mxCell id="Yelha0Kg6dsWEkXLYgLJ-45" value="机床内部相机进行拍摄" style="rounded=0;whiteSpace=wrap;html=1;" vertex="1" parent="1">
          <mxGeometry x="-20" y="1010" width="130" height="60" as="geometry" />
        </mxCell>
        <mxCell id="Yelha0Kg6dsWEkXLYgLJ-46" style="edgeStyle=orthogonalEdgeStyle;rounded=0;orthogonalLoop=1;jettySize=auto;html=1;" edge="1" parent="1" source="Yelha0Kg6dsWEkXLYgLJ-47" target="Yelha0Kg6dsWEkXLYgLJ-49">
          <mxGeometry relative="1" as="geometry" />
        </mxCell>
        <mxCell id="Yelha0Kg6dsWEkXLYgLJ-47" value="将图片发送到云平台后端服务器" style="rounded=0;whiteSpace=wrap;html=1;" vertex="1" parent="1">
          <mxGeometry x="160" y="1010" width="120" height="60" as="geometry" />
        </mxCell>
        <mxCell id="Yelha0Kg6dsWEkXLYgLJ-54" value="" style="edgeStyle=orthogonalEdgeStyle;rounded=0;orthogonalLoop=1;jettySize=auto;html=1;" edge="1" parent="1" source="Yelha0Kg6dsWEkXLYgLJ-49" target="Yelha0Kg6dsWEkXLYgLJ-53">
          <mxGeometry relative="1" as="geometry" />
        </mxCell>
        <mxCell id="Yelha0Kg6dsWEkXLYgLJ-49" value="服务器通过http调用训练好的模型，得到结果图片返回至云平台后端，此时只显示“刀具”而不显示其类型" style="rounded=0;whiteSpace=wrap;html=1;" vertex="1" parent="1">
          <mxGeometry x="333" y="1010" width="147" height="60" as="geometry" />
        </mxCell>
        <mxCell id="Yelha0Kg6dsWEkXLYgLJ-50" value="得到结果后，将图片以及文本结果返回到云平台" style="rounded=0;whiteSpace=wrap;html=1;" vertex="1" parent="1">
          <mxGeometry x="660" y="1010" width="140" height="60" as="geometry" />
        </mxCell>
        <mxCell id="Yelha0Kg6dsWEkXLYgLJ-55" value="" style="edgeStyle=orthogonalEdgeStyle;rounded=0;orthogonalLoop=1;jettySize=auto;html=1;" edge="1" parent="1" source="Yelha0Kg6dsWEkXLYgLJ-53" target="Yelha0Kg6dsWEkXLYgLJ-50">
          <mxGeometry relative="1" as="geometry" />
        </mxCell>
        <mxCell id="Yelha0Kg6dsWEkXLYgLJ-53" value="调用多模态大语言模型API，问图片中是什么类型的刀具" style="rounded=0;whiteSpace=wrap;html=1;" vertex="1" parent="1">
          <mxGeometry x="510" y="1010" width="120" height="60" as="geometry" />
        </mxCell>
      </root>
    </mxGraphModel>
  </diagram>
</mxfile>
